# xmcd
#
# Track frame offsets:
#	150
#	13297
#	28276
#	44181
#	58886
#	70634
#	84424
#	101402
#	116945
#	130896
#	146357
#	163729
#	180540
#	196535
#	211373
#	225905
#	247855
#	262248
#	282542
#	301117
#	318424
#	334203
#
# Disc length: 4691 seconds
#
# Revision: 1
# Processed by: cddbd v1.5.2PL0 Copyright (c) Steve Scherf et al.
# Submitted via: audiograbber 1.83.01
#
DISCID=44125116
DTITLE=Various Artist - Hit Country 2010
DYEAR=2009
DGENRE=Country
TTITLE0=Taylor Swift - Picture To Burn
TTITLE1=Kenny Chesney - Out Last Night
TTITLE2=Jack Ingram - Barefoot And Crazy
TTITLE3=Steve Forde - Guns and Guitars
TTITLE4=Jasmine Rae - Pink Guitar
TTITLE5=The McClymonts - Kick It Up
TTITLE6=Gloriana - Wild At Heart
TTITLE7=Brooks and Dunn - Put A Girl In It
TTITLE8=Shea Fisher - Suitcase
TTITLE9=Jimmy Wayne - Do You Believe Me Now?
TTITLE10=Doc Walker - That's All
TTITLE11=Troy Cassar-Daley - Sing About This Country
TTITLE12=Catherine Britt - Not Your Cinderella
TTITLE13=Amber Lawrence - Don't Do Lonely Well
TTITLE14=Peter McWhirter - Humm
TTITLE15=Jamey Johnson - In Colour
TTITLE16=Sinead Burgess - Happy Ever After
TTITLE17=Sugarland - Love
TTITLE18=David Nail - Red Light
TTITLE19=Felicity Urquhart - Two Wheels
TTITLE20=Jetty Road - Million Miles
TTITLE21=McAlister Kemp - Blue Collar Night
EXTD=YEAR: 2009
EXTT0=
EXTT1=
EXTT2=
EXTT3=
EXTT4=
EXTT5=
EXTT6=
EXTT7=
EXTT8=
EXTT9=
EXTT10=
EXTT11=
EXTT12=
EXTT13=
EXTT14=
EXTT15=
EXTT16=
EXTT17=
EXTT18=
EXTT19=
EXTT20=
EXTT21=
PLAYORDER=
